<svg xmlns="http://www.w3.org/2000/svg" width="900" height="900" viewBox="0 0 900 900" shape-rendering="crispEdges">
<rect x="0" y="0" width="56.25" height="56.25" fill="rgba(184, 148, 95, 1)" />
<rect x="56.25" y="0" width="56.25" height="56.25" fill="rgba(175, 143, 85, 1)" />
<rect x="112.5" y="0" width="56.25" height="56.25" fill="rgba(184, 148, 95, 1)" />
<rect x="168.75" y="0" width="56.25" height="56.25" fill="rgba(194, 157, 98, 1)" />
<rect x="225" y="0" width="56.25" height="56.25" fill="rgba(194, 157, 98, 1)" />
<rect x="281.25" y="0" width="56.25" height="56.25" fill="rgba(194, 157, 98, 1)" />
<rect x="337.5" y="0" width="56.25" height="56.25" fill="rgba(194, 157, 98, 1)" />
<rect x="393.75" y="0" width="56.25" height="56.25" fill="rgba(194, 157, 98, 1)" />
<rect x="450" y="0" width="56.25" height="56.25" fill="rgba(184, 148, 95, 1)" />
<rect x="506.25" y="0" width="56.25" height="56.25" fill="rgba(194, 157, 98, 1)" />
<rect x="562.5" y="0" width="56.25" height="56.25" fill="rgba(194, 157, 98, 1)" />
<rect x="618.75" y="0" width="56.25" height="56.25" fill="rgba(194, 157, 98, 1)" />
<rect x="675" y="0" width="56.25" height="56.25" fill="rgba(194, 157, 98, 1)" />
<rect x="731.25" y="0" width="56.25" height="56.25" fill="rgba(194, 157, 98, 1)" />
<rect x="787.5" y="0" width="56.25" height="56.25" fill="rgba(184, 148, 95, 1)" />
<rect x="843.75" y="0" width="56.25" height="56.25" fill="rgba(150, 116, 65, 1)" />
<rect x="0" y="56.25" width="56.25" height="56.25" fill="rgba(184, 148, 95, 1)" />
<rect x="56.25" y="56.25" width="56.25" height="56.25" fill="rgba(184, 148, 95, 1)" />
<rect x="112.5" y="56.25" width="56.25" height="56.25" fill="rgba(175, 143, 85, 1)" />
<rect x="168.75" y="56.25" width="56.25" height="56.25" fill="rgba(175, 143, 85, 1)" />
<rect x="225" y="56.25" width="56.25" height="56.25" fill="rgba(150, 116, 65, 1)" />
<rect x="281.25" y="56.25" width="56.25" height="56.25" fill="rgba(159, 132, 77, 1)" />
<rect x="337.5" y="56.25" width="56.25" height="56.25" fill="rgba(175, 143, 85, 1)" />
<rect x="393.75" y="56.25" width="56.25" height="56.25" fill="rgba(184, 148, 95, 1)" />
<rect x="450" y="56.25" width="56.25" height="56.25" fill="rgba(184, 148, 95, 1)" />
<rect x="506.25" y="56.25" width="56.25" height="56.25" fill="rgba(184, 148, 95, 1)" />
<rect x="562.5" y="56.25" width="56.25" height="56.25" fill="rgba(175, 143, 85, 1)" />
<rect x="618.75" y="56.25" width="56.25" height="56.25" fill="rgba(175, 143, 85, 1)" />
<rect x="675" y="56.25" width="56.25" height="56.25" fill="rgba(184, 148, 95, 1)" />
<rect x="731.25" y="56.25" width="56.25" height="56.25" fill="rgba(184, 148, 95, 1)" />
<rect x="787.5" y="56.25" width="56.25" height="56.25" fill="rgba(159, 132, 77, 1)" />
<rect x="843.75" y="56.25" width="56.25" height="56.25" fill="rgba(159, 132, 77, 1)" />
<rect x="0" y="112.5" width="56.25" height="56.25" fill="rgba(175, 143, 85, 1)" />
<rect x="56.25" y="112.5" width="56.25" height="56.25" fill="rgba(184, 148, 95, 1)" />
<rect x="112.5" y="112.5" width="56.25" height="56.25" fill="rgba(184, 148, 95, 1)" />
<rect x="168.75" y="112.5" width="56.25" height="56.25" fill="rgba(184, 148, 95, 1)" />
<rect x="225" y="112.5" width="56.25" height="56.25" fill="rgba(175, 143, 85, 1)" />
<rect x="281.25" y="112.5" width="56.25" height="56.25" fill="rgba(184, 148, 95, 1)" />
<rect x="337.5" y="112.5" width="56.25" height="56.25" fill="rgba(175, 143, 85, 1)" />
<rect x="393.75" y="112.5" width="56.25" height="56.25" fill="rgba(159, 132, 77, 1)" />
<rect x="450" y="112.5" width="56.25" height="56.25" fill="rgba(159, 132, 77, 1)" />
<rect x="506.25" y="112.5" width="56.25" height="56.25" fill="rgba(159, 132, 77, 1)" />
<rect x="562.5" y="112.5" width="56.25" height="56.25" fill="rgba(159, 132, 77, 1)" />
<rect x="618.75" y="112.5" width="56.25" height="56.25" fill="rgba(175, 143, 85, 1)" />
<rect x="675" y="112.5" width="56.25" height="56.25" fill="rgba(175, 143, 85, 1)" />
<rect x="731.25" y="112.5" width="56.25" height="56.25" fill="rgba(184, 148, 95, 1)" />
<rect x="787.5" y="112.5" width="56.25" height="56.25" fill="rgba(184, 148, 95, 1)" />
<rect x="843.75" y="112.5" width="56.25" height="56.25" fill="rgba(150, 116, 65, 1)" />
<rect x="0" y="168.75" width="56.25" height="56.25" fill="rgba(150, 116, 65, 1)" />
<rect x="56.25" y="168.75" width="56.25" height="56.25" fill="rgba(126, 98, 55, 1)" />
<rect x="112.5" y="168.75" width="56.25" height="56.25" fill="rgba(126, 98, 55, 1)" />
<rect x="168.75" y="168.75" width="56.25" height="56.25" fill="rgba(150, 116, 65, 1)" />
<rect x="225" y="168.75" width="56.25" height="56.25" fill="rgba(150, 116, 65, 1)" />
<rect x="281.25" y="168.75" width="56.25" height="56.25" fill="rgba(126, 98, 55, 1)" />
<rect x="337.5" y="168.75" width="56.25" height="56.25" fill="rgba(103, 80, 44, 1)" />
<rect x="393.75" y="168.75" width="56.25" height="56.25" fill="rgba(103, 80, 44, 1)" />
<rect x="450" y="168.75" width="56.25" height="56.25" fill="rgba(126, 98, 55, 1)" />
<rect x="506.25" y="168.75" width="56.25" height="56.25" fill="rgba(126, 98, 55, 1)" />
<rect x="562.5" y="168.75" width="56.25" height="56.25" fill="rgba(103, 80, 44, 1)" />
<rect x="618.75" y="168.75" width="56.25" height="56.25" fill="rgba(126, 98, 55, 1)" />
<rect x="675" y="168.75" width="56.25" height="56.25" fill="rgba(103, 80, 44, 1)" />
<rect x="731.25" y="168.75" width="56.25" height="56.25" fill="rgba(103, 80, 44, 1)" />
<rect x="787.5" y="168.75" width="56.25" height="56.25" fill="rgba(126, 98, 55, 1)" />
<rect x="843.75" y="168.75" width="56.25" height="56.25" fill="rgba(103, 80, 44, 1)" />
<rect x="0" y="225" width="56.25" height="56.25" fill="rgba(184, 148, 95, 1)" />
<rect x="56.25" y="225" width="56.25" height="56.25" fill="rgba(194, 157, 98, 1)" />
<rect x="112.5" y="225" width="56.25" height="56.25" fill="rgba(159, 132, 77, 1)" />
<rect x="168.75" y="225" width="56.25" height="56.25" fill="rgba(194, 157, 98, 1)" />
<rect x="225" y="225" width="56.25" height="56.25" fill="rgba(194, 157, 98, 1)" />
<rect x="281.25" y="225" width="56.25" height="56.25" fill="rgba(194, 157, 98, 1)" />
<rect x="337.5" y="225" width="56.25" height="56.25" fill="rgba(194, 157, 98, 1)" />
<rect x="393.75" y="225" width="56.25" height="56.25" fill="rgba(159, 132, 77, 1)" />
<rect x="450" y="225" width="56.25" height="56.25" fill="rgba(194, 157, 98, 1)" />
<rect x="506.25" y="225" width="56.25" height="56.25" fill="rgba(194, 157, 98, 1)" />
<rect x="562.5" y="225" width="56.25" height="56.25" fill="rgba(194, 157, 98, 1)" />
<rect x="618.75" y="225" width="56.25" height="56.25" fill="rgba(184, 148, 95, 1)" />
<rect x="675" y="225" width="56.25" height="56.25" fill="rgba(175, 143, 85, 1)" />
<rect x="731.25" y="225" width="56.25" height="56.25" fill="rgba(175, 143, 85, 1)" />
<rect x="787.5" y="225" width="56.25" height="56.25" fill="rgba(159, 132, 77, 1)" />
<rect x="843.75" y="225" width="56.25" height="56.25" fill="rgba(184, 148, 95, 1)" />
<rect x="0" y="281.25" width="56.25" height="56.25" fill="rgba(175, 143, 85, 1)" />
<rect x="56.25" y="281.25" width="56.25" height="56.25" fill="rgba(184, 148, 95, 1)" />
<rect x="112.5" y="281.25" width="56.25" height="56.25" fill="rgba(184, 148, 95, 1)" />
<rect x="168.75" y="281.25" width="56.25" height="56.25" fill="rgba(175, 143, 85, 1)" />
<rect x="225" y="281.25" width="56.25" height="56.25" fill="rgba(159, 132, 77, 1)" />
<rect x="281.25" y="281.25" width="56.25" height="56.25" fill="rgba(175, 143, 85, 1)" />
<rect x="337.5" y="281.25" width="56.25" height="56.25" fill="rgba(159, 132, 77, 1)" />
<rect x="393.75" y="281.25" width="56.25" height="56.25" fill="rgba(150, 116, 65, 1)" />
<rect x="450" y="281.25" width="56.25" height="56.25" fill="rgba(159, 132, 77, 1)" />
<rect x="506.25" y="281.25" width="56.25" height="56.25" fill="rgba(175, 143, 85, 1)" />
<rect x="562.5" y="281.25" width="56.25" height="56.25" fill="rgba(175, 143, 85, 1)" />
<rect x="618.75" y="281.25" width="56.25" height="56.25" fill="rgba(184, 148, 95, 1)" />
<rect x="675" y="281.25" width="56.25" height="56.25" fill="rgba(184, 148, 95, 1)" />
<rect x="731.25" y="281.25" width="56.25" height="56.25" fill="rgba(184, 148, 95, 1)" />
<rect x="787.5" y="281.25" width="56.25" height="56.25" fill="rgba(184, 148, 95, 1)" />
<rect x="843.75" y="281.25" width="56.25" height="56.25" fill="rgba(175, 143, 85, 1)" />
<rect x="0" y="337.5" width="56.25" height="56.25" fill="rgba(159, 132, 77, 1)" />
<rect x="56.25" y="337.5" width="56.25" height="56.25" fill="rgba(159, 132, 77, 1)" />
<rect x="112.5" y="337.5" width="56.25" height="56.25" fill="rgba(175, 143, 85, 1)" />
<rect x="168.75" y="337.5" width="56.25" height="56.25" fill="rgba(184, 148, 95, 1)" />
<rect x="225" y="337.5" width="56.25" height="56.25" fill="rgba(175, 143, 85, 1)" />
<rect x="281.25" y="337.5" width="56.25" height="56.25" fill="rgba(175, 143, 85, 1)" />
<rect x="337.5" y="337.5" width="56.25" height="56.25" fill="rgba(175, 143, 85, 1)" />
<rect x="393.75" y="337.5" width="56.25" height="56.25" fill="rgba(150, 116, 65, 1)" />
<rect x="450" y="337.5" width="56.25" height="56.25" fill="rgba(184, 148, 95, 1)" />
<rect x="506.25" y="337.5" width="56.25" height="56.25" fill="rgba(184, 148, 95, 1)" />
<rect x="562.5" y="337.5" width="56.25" height="56.25" fill="rgba(184, 148, 95, 1)" />
<rect x="618.75" y="337.5" width="56.25" height="56.25" fill="rgba(175, 143, 85, 1)" />
<rect x="675" y="337.5" width="56.25" height="56.25" fill="rgba(175, 143, 85, 1)" />
<rect x="731.25" y="337.5" width="56.25" height="56.25" fill="rgba(159, 132, 77, 1)" />
<rect x="787.5" y="337.5" width="56.25" height="56.25" fill="rgba(159, 132, 77, 1)" />
<rect x="843.75" y="337.5" width="56.25" height="56.25" fill="rgba(159, 132, 77, 1)" />
<rect x="0" y="393.75" width="56.25" height="56.25" fill="rgba(103, 80, 44, 1)" />
<rect x="56.25" y="393.75" width="56.25" height="56.25" fill="rgba(103, 80, 44, 1)" />
<rect x="112.5" y="393.75" width="56.25" height="56.25" fill="rgba(126, 98, 55, 1)" />
<rect x="168.75" y="393.75" width="56.25" height="56.25" fill="rgba(126, 98, 55, 1)" />
<rect x="225" y="393.75" width="56.25" height="56.25" fill="rgba(150, 116, 65, 1)" />
<rect x="281.25" y="393.75" width="56.25" height="56.25" fill="rgba(126, 98, 55, 1)" />
<rect x="337.5" y="393.75" width="56.25" height="56.25" fill="rgba(103, 80, 44, 1)" />
<rect x="393.75" y="393.75" width="56.25" height="56.25" fill="rgba(103, 80, 44, 1)" />
<rect x="450" y="393.75" width="56.25" height="56.25" fill="rgba(103, 80, 44, 1)" />
<rect x="506.25" y="393.75" width="56.25" height="56.25" fill="rgba(103, 80, 44, 1)" />
<rect x="562.5" y="393.75" width="56.25" height="56.25" fill="rgba(126, 98, 55, 1)" />
<rect x="618.75" y="393.75" width="56.25" height="56.25" fill="rgba(126, 98, 55, 1)" />
<rect x="675" y="393.75" width="56.25" height="56.25" fill="rgba(126, 98, 55, 1)" />
<rect x="731.25" y="393.75" width="56.25" height="56.25" fill="rgba(150, 116, 65, 1)" />
<rect x="787.5" y="393.75" width="56.25" height="56.25" fill="rgba(126, 98, 55, 1)" />
<rect x="843.75" y="393.75" width="56.25" height="56.25" fill="rgba(103, 80, 44, 1)" />
<rect x="0" y="450" width="56.25" height="56.25" fill="rgba(184, 148, 95, 1)" />
<rect x="56.25" y="450" width="56.25" height="56.25" fill="rgba(194, 157, 98, 1)" />
<rect x="112.5" y="450" width="56.25" height="56.25" fill="rgba(194, 157, 98, 1)" />
<rect x="168.75" y="450" width="56.25" height="56.25" fill="rgba(184, 148, 95, 1)" />
<rect x="225" y="450" width="56.25" height="56.25" fill="rgba(175, 143, 85, 1)" />
<rect x="281.25" y="450" width="56.25" height="56.25" fill="rgba(175, 143, 85, 1)" />
<rect x="337.5" y="450" width="56.25" height="56.25" fill="rgba(194, 157, 98, 1)" />
<rect x="393.75" y="450" width="56.25" height="56.25" fill="rgba(194, 157, 98, 1)" />
<rect x="450" y="450" width="56.25" height="56.25" fill="rgba(194, 157, 98, 1)" />
<rect x="506.25" y="450" width="56.25" height="56.25" fill="rgba(194, 157, 98, 1)" />
<rect x="562.5" y="450" width="56.25" height="56.25" fill="rgba(194, 157, 98, 1)" />
<rect x="618.75" y="450" width="56.25" height="56.25" fill="rgba(194, 157, 98, 1)" />
<rect x="675" y="450" width="56.25" height="56.25" fill="rgba(194, 157, 98, 1)" />
<rect x="731.25" y="450" width="56.25" height="56.25" fill="rgba(194, 157, 98, 1)" />
<rect x="787.5" y="450" width="56.25" height="56.25" fill="rgba(184, 148, 95, 1)" />
<rect x="843.75" y="450" width="56.25" height="56.25" fill="rgba(159, 132, 77, 1)" />
<rect x="0" y="506.25" width="56.25" height="56.25" fill="rgba(184, 148, 95, 1)" />
<rect x="56.25" y="506.25" width="56.25" height="56.25" fill="rgba(175, 143, 85, 1)" />
<rect x="112.5" y="506.25" width="56.25" height="56.25" fill="rgba(184, 148, 95, 1)" />
<rect x="168.75" y="506.25" width="56.25" height="56.25" fill="rgba(184, 148, 95, 1)" />
<rect x="225" y="506.25" width="56.25" height="56.25" fill="rgba(184, 148, 95, 1)" />
<rect x="281.25" y="506.25" width="56.25" height="56.25" fill="rgba(184, 148, 95, 1)" />
<rect x="337.5" y="506.25" width="56.25" height="56.25" fill="rgba(175, 143, 85, 1)" />
<rect x="393.75" y="506.25" width="56.25" height="56.25" fill="rgba(159, 132, 77, 1)" />
<rect x="450" y="506.25" width="56.25" height="56.25" fill="rgba(159, 132, 77, 1)" />
<rect x="506.25" y="506.25" width="56.25" height="56.25" fill="rgba(159, 132, 77, 1)" />
<rect x="562.5" y="506.25" width="56.25" height="56.25" fill="rgba(175, 143, 85, 1)" />
<rect x="618.75" y="506.25" width="56.25" height="56.25" fill="rgba(159, 132, 77, 1)" />
<rect x="675" y="506.25" width="56.25" height="56.25" fill="rgba(175, 143, 85, 1)" />
<rect x="731.25" y="506.25" width="56.25" height="56.25" fill="rgba(159, 132, 77, 1)" />
<rect x="787.5" y="506.25" width="56.25" height="56.25" fill="rgba(159, 132, 77, 1)" />
<rect x="843.75" y="506.25" width="56.25" height="56.25" fill="rgba(150, 116, 65, 1)" />
<rect x="0" y="562.5" width="56.25" height="56.25" fill="rgba(194, 157, 98, 1)" />
<rect x="56.25" y="562.5" width="56.25" height="56.25" fill="rgba(184, 148, 95, 1)" />
<rect x="112.5" y="562.5" width="56.25" height="56.25" fill="rgba(175, 143, 85, 1)" />
<rect x="168.75" y="562.5" width="56.25" height="56.25" fill="rgba(175, 143, 85, 1)" />
<rect x="225" y="562.5" width="56.25" height="56.25" fill="rgba(159, 132, 77, 1)" />
<rect x="281.25" y="562.5" width="56.25" height="56.25" fill="rgba(159, 132, 77, 1)" />
<rect x="337.5" y="562.5" width="56.25" height="56.25" fill="rgba(159, 132, 77, 1)" />
<rect x="393.75" y="562.5" width="56.25" height="56.25" fill="rgba(159, 132, 77, 1)" />
<rect x="450" y="562.5" width="56.25" height="56.25" fill="rgba(175, 143, 85, 1)" />
<rect x="506.25" y="562.5" width="56.25" height="56.25" fill="rgba(175, 143, 85, 1)" />
<rect x="562.5" y="562.5" width="56.25" height="56.25" fill="rgba(175, 143, 85, 1)" />
<rect x="618.75" y="562.5" width="56.25" height="56.25" fill="rgba(175, 143, 85, 1)" />
<rect x="675" y="562.5" width="56.25" height="56.25" fill="rgba(159, 132, 77, 1)" />
<rect x="731.25" y="562.5" width="56.25" height="56.25" fill="rgba(159, 132, 77, 1)" />
<rect x="787.5" y="562.5" width="56.25" height="56.25" fill="rgba(184, 148, 95, 1)" />
<rect x="843.75" y="562.5" width="56.25" height="56.25" fill="rgba(159, 132, 77, 1)" />
<rect x="0" y="618.75" width="56.25" height="56.25" fill="rgba(103, 80, 44, 1)" />
<rect x="56.25" y="618.75" width="56.25" height="56.25" fill="rgba(103, 80, 44, 1)" />
<rect x="112.5" y="618.75" width="56.25" height="56.25" fill="rgba(126, 98, 55, 1)" />
<rect x="168.75" y="618.75" width="56.25" height="56.25" fill="rgba(150, 116, 65, 1)" />
<rect x="225" y="618.75" width="56.25" height="56.25" fill="rgba(150, 116, 65, 1)" />
<rect x="281.25" y="618.75" width="56.25" height="56.25" fill="rgba(126, 98, 55, 1)" />
<rect x="337.5" y="618.75" width="56.25" height="56.25" fill="rgba(103, 80, 44, 1)" />
<rect x="393.75" y="618.75" width="56.25" height="56.25" fill="rgba(103, 80, 44, 1)" />
<rect x="450" y="618.75" width="56.25" height="56.25" fill="rgba(103, 80, 44, 1)" />
<rect x="506.25" y="618.75" width="56.25" height="56.25" fill="rgba(126, 98, 55, 1)" />
<rect x="562.5" y="618.75" width="56.25" height="56.25" fill="rgba(150, 116, 65, 1)" />
<rect x="618.75" y="618.75" width="56.25" height="56.25" fill="rgba(126, 98, 55, 1)" />
<rect x="675" y="618.75" width="56.25" height="56.25" fill="rgba(126, 98, 55, 1)" />
<rect x="731.25" y="618.75" width="56.25" height="56.25" fill="rgba(103, 80, 44, 1)" />
<rect x="787.5" y="618.75" width="56.25" height="56.25" fill="rgba(103, 80, 44, 1)" />
<rect x="843.75" y="618.75" width="56.25" height="56.25" fill="rgba(103, 80, 44, 1)" />
<rect x="0" y="675" width="56.25" height="56.25" fill="rgba(194, 157, 98, 1)" />
<rect x="56.25" y="675" width="56.25" height="56.25" fill="rgba(159, 132, 77, 1)" />
<rect x="112.5" y="675" width="56.25" height="56.25" fill="rgba(184, 148, 95, 1)" />
<rect x="168.75" y="675" width="56.25" height="56.25" fill="rgba(194, 157, 98, 1)" />
<rect x="225" y="675" width="56.25" height="56.25" fill="rgba(194, 157, 98, 1)" />
<rect x="281.25" y="675" width="56.25" height="56.25" fill="rgba(184, 148, 95, 1)" />
<rect x="337.5" y="675" width="56.25" height="56.25" fill="rgba(184, 148, 95, 1)" />
<rect x="393.75" y="675" width="56.25" height="56.25" fill="rgba(159, 132, 77, 1)" />
<rect x="450" y="675" width="56.25" height="56.25" fill="rgba(194, 157, 98, 1)" />
<rect x="506.25" y="675" width="56.25" height="56.25" fill="rgba(194, 157, 98, 1)" />
<rect x="562.5" y="675" width="56.25" height="56.25" fill="rgba(194, 157, 98, 1)" />
<rect x="618.75" y="675" width="56.25" height="56.25" fill="rgba(159, 132, 77, 1)" />
<rect x="675" y="675" width="56.25" height="56.25" fill="rgba(194, 157, 98, 1)" />
<rect x="731.25" y="675" width="56.25" height="56.25" fill="rgba(184, 148, 95, 1)" />
<rect x="787.5" y="675" width="56.25" height="56.25" fill="rgba(194, 157, 98, 1)" />
<rect x="843.75" y="675" width="56.25" height="56.25" fill="rgba(194, 157, 98, 1)" />
<rect x="0" y="731.25" width="56.25" height="56.25" fill="rgba(175, 143, 85, 1)" />
<rect x="56.25" y="731.25" width="56.25" height="56.25" fill="rgba(175, 143, 85, 1)" />
<rect x="112.5" y="731.25" width="56.25" height="56.25" fill="rgba(184, 148, 95, 1)" />
<rect x="168.75" y="731.25" width="56.25" height="56.25" fill="rgba(184, 148, 95, 1)" />
<rect x="225" y="731.25" width="56.25" height="56.25" fill="rgba(159, 132, 77, 1)" />
<rect x="281.25" y="731.25" width="56.25" height="56.25" fill="rgba(159, 132, 77, 1)" />
<rect x="337.5" y="731.25" width="56.25" height="56.25" fill="rgba(175, 143, 85, 1)" />
<rect x="393.75" y="731.25" width="56.25" height="56.25" fill="rgba(159, 132, 77, 1)" />
<rect x="450" y="731.25" width="56.25" height="56.25" fill="rgba(159, 132, 77, 1)" />
<rect x="506.25" y="731.25" width="56.25" height="56.25" fill="rgba(184, 148, 95, 1)" />
<rect x="562.5" y="731.25" width="56.25" height="56.25" fill="rgba(184, 148, 95, 1)" />
<rect x="618.75" y="731.25" width="56.25" height="56.25" fill="rgba(175, 143, 85, 1)" />
<rect x="675" y="731.25" width="56.25" height="56.25" fill="rgba(184, 148, 95, 1)" />
<rect x="731.25" y="731.25" width="56.25" height="56.25" fill="rgba(175, 143, 85, 1)" />
<rect x="787.5" y="731.25" width="56.25" height="56.25" fill="rgba(175, 143, 85, 1)" />
<rect x="843.75" y="731.25" width="56.25" height="56.25" fill="rgba(175, 143, 85, 1)" />
<rect x="0" y="787.5" width="56.25" height="56.25" fill="rgba(175, 143, 85, 1)" />
<rect x="56.25" y="787.5" width="56.25" height="56.25" fill="rgba(159, 132, 77, 1)" />
<rect x="112.5" y="787.5" width="56.25" height="56.25" fill="rgba(159, 132, 77, 1)" />
<rect x="168.75" y="787.5" width="56.25" height="56.25" fill="rgba(175, 143, 85, 1)" />
<rect x="225" y="787.5" width="56.25" height="56.25" fill="rgba(184, 148, 95, 1)" />
<rect x="281.25" y="787.5" width="56.25" height="56.25" fill="rgba(175, 143, 85, 1)" />
<rect x="337.5" y="787.5" width="56.25" height="56.25" fill="rgba(159, 132, 77, 1)" />
<rect x="393.75" y="787.5" width="56.25" height="56.25" fill="rgba(150, 116, 65, 1)" />
<rect x="450" y="787.5" width="56.25" height="56.25" fill="rgba(184, 148, 95, 1)" />
<rect x="506.25" y="787.5" width="56.25" height="56.25" fill="rgba(184, 148, 95, 1)" />
<rect x="562.5" y="787.5" width="56.25" height="56.25" fill="rgba(175, 143, 85, 1)" />
<rect x="618.75" y="787.5" width="56.25" height="56.25" fill="rgba(159, 132, 77, 1)" />
<rect x="675" y="787.5" width="56.25" height="56.25" fill="rgba(159, 132, 77, 1)" />
<rect x="731.25" y="787.5" width="56.25" height="56.25" fill="rgba(159, 132, 77, 1)" />
<rect x="787.5" y="787.5" width="56.25" height="56.25" fill="rgba(159, 132, 77, 1)" />
<rect x="843.75" y="787.5" width="56.25" height="56.25" fill="rgba(159, 132, 77, 1)" />
<rect x="0" y="843.75" width="56.25" height="56.25" fill="rgba(103, 80, 44, 1)" />
<rect x="56.25" y="843.75" width="56.25" height="56.25" fill="rgba(126, 98, 55, 1)" />
<rect x="112.5" y="843.75" width="56.25" height="56.25" fill="rgba(126, 98, 55, 1)" />
<rect x="168.75" y="843.75" width="56.25" height="56.25" fill="rgba(103, 80, 44, 1)" />
<rect x="225" y="843.75" width="56.25" height="56.25" fill="rgba(103, 80, 44, 1)" />
<rect x="281.25" y="843.75" width="56.25" height="56.25" fill="rgba(126, 98, 55, 1)" />
<rect x="337.5" y="843.75" width="56.25" height="56.25" fill="rgba(150, 116, 65, 1)" />
<rect x="393.75" y="843.75" width="56.25" height="56.25" fill="rgba(150, 116, 65, 1)" />
<rect x="450" y="843.75" width="56.25" height="56.25" fill="rgba(150, 116, 65, 1)" />
<rect x="506.25" y="843.75" width="56.25" height="56.25" fill="rgba(126, 98, 55, 1)" />
<rect x="562.5" y="843.75" width="56.25" height="56.25" fill="rgba(103, 80, 44, 1)" />
<rect x="618.75" y="843.75" width="56.25" height="56.25" fill="rgba(126, 98, 55, 1)" />
<rect x="675" y="843.75" width="56.25" height="56.25" fill="rgba(103, 80, 44, 1)" />
<rect x="731.25" y="843.75" width="56.25" height="56.25" fill="rgba(103, 80, 44, 1)" />
<rect x="787.5" y="843.75" width="56.25" height="56.25" fill="rgba(103, 80, 44, 1)" />
<rect x="843.75" y="843.75" width="56.25" height="56.25" fill="rgba(103, 80, 44, 1)" />
</svg>
