<svg xmlns="http://www.w3.org/2000/svg" width="900" height="900" viewBox="0 0 16 16" shape-rendering="crispEdges"><path fill="rgba(41,107,28,1)" d="M0 0h1v1H0z M7 0h1v1H7z M14 0h1v1H14z M15 0h1v1H15z M7 1h1v1H7z M14 1h1v1H14z M2 2h1v1H2z M7 2h1v1H7z M14 2h1v1H14z M7 3h1v1H7z"/><path fill="rgba(56,148,36,1)" d="M1 0h1v1H1z M4 0h1v1H4z M6 0h1v1H6z M11 0h1v1H11z M12 0h1v1H12z M0 1h1v1H0z M4 1h1v1H4z M11 1h1v1H11z M12 1h1v1H12z M15 1h1v1H15z M0 2h1v1H0z M5 2h1v1H5z M11 2h1v1H11z M15 2h1v1H15z M4 3h1v1H4z M5 3h1v1H5z M7 4h1v1H7z"/><path fill="rgba(82,178,56,1)" d="M2 0h1v1H2z M3 0h1v1H3z M5 0h1v1H5z M8 0h1v1H8z M9 0h1v1H9z M10 0h1v1H10z M13 0h1v1H13z M1 1h1v1H1z M2 1h1v1H2z M3 1h1v1H3z M5 1h1v1H5z M6 1h1v1H6z M8 1h1v1H8z M9 1h1v1H9z M10 1h1v1H10z M13 1h1v1H13z M1 2h1v1H1z M3 2h1v1H3z M6 2h1v1H6z M8 2h1v1H8z M9 2h1v1H9z M12 2h1v1H12z M2 3h1v1H2z M6 3h1v1H6z M11 3h1v1H11z M6 4h1v1H6z"/><path fill="rgba(107,66,38,1)" d="M4 2h1v1H4z M0 3h1v1H0z M1 3h1v1H1z M9 3h1v1H9z M10 3h1v1H10z M14 3h1v1H14z M3 4h1v1H3z M11 4h1v1H11z M14 4h1v1H14z M0 5h1v1H0z M5 5h1v1H5z M8 5h1v1H8z M13 5h1v1H13z M1 6h1v1H1z M4 6h1v1H4z M9 6h1v1H9z M12 6h1v1H12z M0 7h1v1H0z M4 7h1v1H4z M9 7h1v1H9z M13 7h1v1H13z M14 7h1v1H14z M1 8h1v1H1z M2 8h1v1H2z M7 8h1v1H7z M11 8h1v1H11z M3 9h1v1H3z M6 9h1v1H6z M9 9h1v1H9z M10 9h1v1H10z M14 9h1v1H14z M0 10h1v1H0z M1 10h1v1H1z M9 10h1v1H9z M10 10h1v1H10z M14 10h1v1H14z M1 11h1v1H1z M4 11h1v1H4z M9 11h1v1H9z M12 11h1v1H12z M15 11h1v1H15z M1 12h1v1H1z M4 12h1v1H4z M5 12h1v1H5z M9 12h1v1H9z M13 12h1v1H13z M0 13h1v1H0z M4 13h1v1H4z M7 13h1v1H7z M10 13h1v1H10z M11 13h1v1H11z M1 14h1v1H1z M7 14h1v1H7z M9 14h1v1H9z M13 14h1v1H13z M1 15h1v1H1z M4 15h1v1H4z M9 15h1v1H9z M12 15h1v1H12z"/><path fill="rgba(133,87,51,1)" d="M10 2h1v1H10z M15 3h1v1H15z M1 4h1v1H1z M4 4h1v1H4z M12 4h1v1H12z M3 5h1v1H3z M6 5h1v1H6z M10 5h1v1H10z M14 5h1v1H14z M15 5h1v1H15z M3 6h1v1H3z M7 6h1v1H7z M11 6h1v1H11z M15 6h1v1H15z M1 7h1v1H1z M5 7h1v1H5z M10 7h1v1H10z M15 7h1v1H15z M3 8h1v1H3z M6 8h1v1H6z M8 8h1v1H8z M15 8h1v1H15z M0 9h1v1H0z M4 9h1v1H4z M8 9h1v1H8z M11 9h1v1H11z M15 9h1v1H15z M2 10h1v1H2z M6 10h1v1H6z M11 10h1v1H11z M15 10h1v1H15z M2 11h1v1H2z M6 11h1v1H6z M10 11h1v1H10z M14 11h1v1H14z M3 12h1v1H3z M6 12h1v1H6z M10 12h1v1H10z M1 13h1v1H1z M5 13h1v1H5z M9 13h1v1H9z M12 13h1v1H12z M15 13h1v1H15z M2 14h1v1H2z M6 14h1v1H6z M11 14h1v1H11z M15 14h1v1H15z M3 15h1v1H3z M7 15h1v1H7z M11 15h1v1H11z M15 15h1v1H15z"/><path fill="rgba(87,56,33,1)" d="M13 2h1v1H13z M3 3h1v1H3z M12 3h1v1H12z M13 3h1v1H13z M0 4h1v1H0z M8 4h1v1H8z M10 4h1v1H10z M15 4h1v1H15z M2 5h1v1H2z M4 5h1v1H4z M9 5h1v1H9z M2 6h1v1H2z M6 6h1v1H6z M10 6h1v1H10z M14 6h1v1H14z M3 7h1v1H3z M7 7h1v1H7z M12 7h1v1H12z M0 8h1v1H0z M5 8h1v1H5z M10 8h1v1H10z M14 8h1v1H14z M2 9h1v1H2z M7 9h1v1H7z M13 9h1v1H13z M5 10h1v1H5z M8 10h1v1H8z M13 10h1v1H13z M0 11h1v1H0z M5 11h1v1H5z M8 11h1v1H8z M13 11h1v1H13z M2 12h1v1H2z M8 12h1v1H8z M12 12h1v1H12z M3 13h1v1H3z M8 13h1v1H8z M14 13h1v1H14z M0 14h1v1H0z M5 14h1v1H5z M10 14h1v1H10z M14 14h1v1H14z M2 15h1v1H2z M6 15h1v1H6z M10 15h1v1H10z M14 15h1v1H14z"/><path fill="rgba(158,115,71,1)" d="M8 3h1v1H8z M2 4h1v1H2z M9 4h1v1H9z M13 4h1v1H13z M1 5h1v1H1z M7 5h1v1H7z M12 5h1v1H12z M0 6h1v1H0z M5 6h1v1H5z M8 6h1v1H8z M13 6h1v1H13z M2 7h1v1H2z M8 7h1v1H8z M11 7h1v1H11z M4 8h1v1H4z M9 8h1v1H9z M13 8h1v1H13z M1 9h1v1H1z M5 9h1v1H5z M12 9h1v1H12z M4 10h1v1H4z M7 10h1v1H7z M12 10h1v1H12z M3 11h1v1H3z M11 11h1v1H11z M0 12h1v1H0z M7 12h1v1H7z M11 12h1v1H11z M15 12h1v1H15z M2 13h1v1H2z M6 13h1v1H6z M13 13h1v1H13z M4 14h1v1H4z M8 14h1v1H8z M12 14h1v1H12z M0 15h1v1H0z M5 15h1v1H5z M13 15h1v1H13z"/><path fill="rgba(140,140,125,1)" d="M5 4h1v1H5z M11 5h1v1H11z M6 7h1v1H6z M12 8h1v1H12z M3 10h1v1H3z M7 11h1v1H7z M14 12h1v1H14z M3 14h1v1H3z M8 15h1v1H8z"/></svg>