{"asset":{"version":"2.0","generator":"VoxiGen"},"scenes":[{"nodes":[0]}],"nodes":[{"mesh":0}],"meshes":[{"primitives":[{"attributes":{"POSITION":0,"NORMAL":1,"COLOR_0":2},"indices":3,"material":0}]}],"materials":[{"pbrMetallicRoughness":{"baseColorFactor":[1,1,1,1],"metallicFactor":0,"roughnessFactor":1},"alphaMode":"OPAQUE","name":"VoxelMaterial","doubleSided":false}],"accessors":[{"bufferView":0,"componentType":5126,"count":3424,"type":"VEC3","min":[-8,0,-8],"max":[8,18,8]},{"bufferView":1,"componentType":5126,"count":3424,"type":"VEC3"},{"bufferView":2,"componentType":5126,"count":3424,"type":"VEC4"},{"bufferView":3,"componentType":5125,"count":5136,"type":"SCALAR"}],"bufferViews":[{"buffer":0,"byteOffset":0,"byteLength":41088,"target":34962},{"buffer":0,"byteOffset":41088,"byteLength":41088,"target":34962},{"buffer":0,"byteOffset":82176,"byteLength":54784,"target":34962},{"buffer":0,"byteOffset":136960,"byteLength":20544,"target":34963}],"buffers":[{"uri":"data:application/octet-stream;base64,","byteLength":157504}]}